<?xml version="1.0" encoding="utf-8" standalone="no"?>
<!DOCTYPE svg PUBLIC "-//W3C//DTD SVG 1.1//EN"
  "http://www.w3.org/Graphics/SVG/1.1/DTD/svg11.dtd">
<!-- Created with matplotlib (https://matplotlib.org/) -->
<svg height="252.518125pt" version="1.1" viewBox="0 0 395.328125 252.518125" width="395.328125pt" xmlns="http://www.w3.org/2000/svg" xmlns:xlink="http://www.w3.org/1999/xlink">
 <metadata>
  <rdf:RDF xmlns:cc="http://creativecommons.org/ns#" xmlns:dc="http://purl.org/dc/elements/1.1/" xmlns:rdf="http://www.w3.org/1999/02/22-rdf-syntax-ns#">
   <cc:Work>
    <dc:type rdf:resource="http://purl.org/dc/dcmitype/StillImage"/>
    <dc:date>2020-11-29T20:36:10.249150</dc:date>
    <dc:format>image/svg+xml</dc:format>
    <dc:creator>
     <cc:Agent>
      <dc:title>Matplotlib v3.3.2, https://matplotlib.org/</dc:title>
     </cc:Agent>
    </dc:creator>
   </cc:Work>
  </rdf:RDF>
 </metadata>
 <defs>
  <style type="text/css">*{stroke-linecap:butt;stroke-linejoin:round;}</style>
 </defs>
 <g id="figure_1">
  <g id="patch_1">
   <path d="M 0 252.518125 
L 395.328125 252.518125 
L 395.328125 0 
L 0 0 
z
" style="fill:none;"/>
  </g>
  <g id="axes_1">
   <g id="patch_2">
    <path d="M 53.328125 224.64 
L 388.128125 224.64 
L 388.128125 7.2 
L 53.328125 7.2 
z
" style="fill:#ffffff;"/>
   </g>
   <g id="PathCollection_1">
    <defs>
     <path d="M 0 3 
C 0.795609 3 1.55874 2.683901 2.12132 2.12132 
C 2.683901 1.55874 3 0.795609 3 0 
C 3 -0.795609 2.683901 -1.55874 2.12132 -2.12132 
C 1.55874 -2.683901 0.795609 -3 0 -3 
C -0.795609 -3 -1.55874 -2.683901 -2.12132 -2.12132 
C -2.683901 -1.55874 -3 -0.795609 -3 0 
C -3 0.795609 -2.683901 1.55874 -2.12132 2.12132 
C -1.55874 2.683901 -0.795609 3 0 3 
z
" id="md2e1ca0261" style="stroke:#ffffff;stroke-width:0.48;"/>
    </defs>
    <g clip-path="url(#p22df393b80)">
     <use style="fill:#ff0000;stroke:#ffffff;stroke-width:0.48;" x="68.546307" xlink:href="#md2e1ca0261" y="172.36605"/>
     <use style="fill:#ff0000;stroke:#ffffff;stroke-width:0.48;" x="81.779508" xlink:href="#md2e1ca0261" y="141.488053"/>
     <use style="fill:#ff0000;stroke:#ffffff;stroke-width:0.48;" x="68.546307" xlink:href="#md2e1ca0261" y="179.505471"/>
     <use style="fill:#ff0000;stroke:#ffffff;stroke-width:0.48;" x="81.779508" xlink:href="#md2e1ca0261" y="152.464913"/>
     <use style="fill:#ff0000;stroke:#ffffff;stroke-width:0.48;" x="81.779508" xlink:href="#md2e1ca0261" y="154.071283"/>
     <use style="fill:#ff0000;stroke:#ffffff;stroke-width:0.48;" x="95.01271" xlink:href="#md2e1ca0261" y="213.506965"/>
     <use style="fill:#ff0000;stroke:#ffffff;stroke-width:0.48;" x="81.779508" xlink:href="#md2e1ca0261" y="188.340505"/>
     <use style="fill:#ff0000;stroke:#ffffff;stroke-width:0.48;" x="81.779508" xlink:href="#md2e1ca0261" y="154.517496"/>
     <use style="fill:#ff0000;stroke:#ffffff;stroke-width:0.48;" x="81.779508" xlink:href="#md2e1ca0261" y="168.439368"/>
     <use style="fill:#ff0000;stroke:#ffffff;stroke-width:0.48;" x="81.779508" xlink:href="#md2e1ca0261" y="73.038851"/>
     <use style="fill:#ff0000;stroke:#ffffff;stroke-width:0.48;" x="81.779508" xlink:href="#md2e1ca0261" y="214.756364"/>
     <use style="fill:#ff0000;stroke:#ffffff;stroke-width:0.48;" x="81.779508" xlink:href="#md2e1ca0261" y="153.089612"/>
     <use style="fill:#ff0000;stroke:#ffffff;stroke-width:0.48;" x="81.779508" xlink:href="#md2e1ca0261" y="133.188475"/>
     <use style="fill:#ff0000;stroke:#ffffff;stroke-width:0.48;" x="81.779508" xlink:href="#md2e1ca0261" y="127.655424"/>
     <use style="fill:#ff0000;stroke:#ffffff;stroke-width:0.48;" x="95.01271" xlink:href="#md2e1ca0261" y="197.443267"/>
     <use style="fill:#ff0000;stroke:#ffffff;stroke-width:0.48;" x="108.245912" xlink:href="#md2e1ca0261" y="133.545446"/>
     <use style="fill:#ff0000;stroke:#ffffff;stroke-width:0.48;" x="108.245912" xlink:href="#md2e1ca0261" y="133.545446"/>
     <use style="fill:#ff0000;stroke:#ffffff;stroke-width:0.48;" x="121.479113" xlink:href="#md2e1ca0261" y="179.237743"/>
     <use style="fill:#ff0000;stroke:#ffffff;stroke-width:0.48;" x="134.712315" xlink:href="#md2e1ca0261" y="81.0707"/>
     <use style="fill:#ff0000;stroke:#ffffff;stroke-width:0.48;" x="108.245912" xlink:href="#md2e1ca0261" y="125.513597"/>
     <use style="fill:#ff0000;stroke:#ffffff;stroke-width:0.48;" x="81.779508" xlink:href="#md2e1ca0261" y="168.439368"/>
     <use style="fill:#ff0000;stroke:#ffffff;stroke-width:0.48;" x="161.178718" xlink:href="#md2e1ca0261" y="53.851656"/>
     <use style="fill:#ff0000;stroke:#ffffff;stroke-width:0.48;" x="161.178718" xlink:href="#md2e1ca0261" y="53.851656"/>
     <use style="fill:#ff0000;stroke:#ffffff;stroke-width:0.48;" x="174.411919" xlink:href="#md2e1ca0261" y="123.371771"/>
     <use style="fill:#ff0000;stroke:#ffffff;stroke-width:0.48;" x="187.645121" xlink:href="#md2e1ca0261" y="171.919836"/>
     <use style="fill:#ff0000;stroke:#ffffff;stroke-width:0.48;" x="81.779508" xlink:href="#md2e1ca0261" y="163.709501"/>
     <use style="fill:#ff0000;stroke:#ffffff;stroke-width:0.48;" x="200.878323" xlink:href="#md2e1ca0261" y="189.589904"/>
     <use style="fill:#ff0000;stroke:#ffffff;stroke-width:0.48;" x="214.111524" xlink:href="#md2e1ca0261" y="152.37567"/>
     <use style="fill:#ff0000;stroke:#ffffff;stroke-width:0.48;" x="81.779508" xlink:href="#md2e1ca0261" y="118.284933"/>
     <use style="fill:#ff0000;stroke:#ffffff;stroke-width:0.48;" x="81.779508" xlink:href="#md2e1ca0261" y="158.444178"/>
     <use style="fill:#ff0000;stroke:#ffffff;stroke-width:0.48;" x="187.645121" xlink:href="#md2e1ca0261" y="199.228122"/>
     <use style="fill:#ff0000;stroke:#ffffff;stroke-width:0.48;" x="81.779508" xlink:href="#md2e1ca0261" y="201.459191"/>
     <use style="fill:#ff0000;stroke:#ffffff;stroke-width:0.48;" x="227.344726" xlink:href="#md2e1ca0261" y="108.646715"/>
     <use style="fill:#ff0000;stroke:#ffffff;stroke-width:0.48;" x="108.245912" xlink:href="#md2e1ca0261" y="170.491952"/>
     <use style="fill:#ff0000;stroke:#ffffff;stroke-width:0.48;" x="240.577927" xlink:href="#md2e1ca0261" y="102.667449"/>
     <use style="fill:#ff0000;stroke:#ffffff;stroke-width:0.48;" x="81.779508" xlink:href="#md2e1ca0261" y="107.129588"/>
     <use style="fill:#ff0000;stroke:#ffffff;stroke-width:0.48;" x="68.546307" xlink:href="#md2e1ca0261" y="148.002774"/>
     <use style="fill:#ff0000;stroke:#ffffff;stroke-width:0.48;" x="187.645121" xlink:href="#md2e1ca0261" y="186.644892"/>
     <use style="fill:#ff0000;stroke:#ffffff;stroke-width:0.48;" x="174.411919" xlink:href="#md2e1ca0261" y="156.302352"/>
     <use style="fill:#ff0000;stroke:#ffffff;stroke-width:0.48;" x="267.044331" xlink:href="#md2e1ca0261" y="181.379569"/>
     <use style="fill:#ff0000;stroke:#ffffff;stroke-width:0.48;" x="95.01271" xlink:href="#md2e1ca0261" y="182.182754"/>
     <use style="fill:#ff0000;stroke:#ffffff;stroke-width:0.48;" x="280.277532" xlink:href="#md2e1ca0261" y="161.478432"/>
     <use style="fill:#ff0000;stroke:#ffffff;stroke-width:0.48;" x="280.277532" xlink:href="#md2e1ca0261" y="161.478432"/>
     <use style="fill:#ff0000;stroke:#ffffff;stroke-width:0.48;" x="280.277532" xlink:href="#md2e1ca0261" y="161.478432"/>
     <use style="fill:#ff0000;stroke:#ffffff;stroke-width:0.48;" x="280.277532" xlink:href="#md2e1ca0261" y="161.478432"/>
     <use style="fill:#ff0000;stroke:#ffffff;stroke-width:0.48;" x="280.277532" xlink:href="#md2e1ca0261" y="161.478432"/>
     <use style="fill:#ff0000;stroke:#ffffff;stroke-width:0.48;" x="280.277532" xlink:href="#md2e1ca0261" y="161.478432"/>
     <use style="fill:#ff0000;stroke:#ffffff;stroke-width:0.48;" x="280.277532" xlink:href="#md2e1ca0261" y="161.478432"/>
     <use style="fill:#ff0000;stroke:#ffffff;stroke-width:0.48;" x="108.245912" xlink:href="#md2e1ca0261" y="161.478432"/>
     <use style="fill:#ff0000;stroke:#ffffff;stroke-width:0.48;" x="81.779508" xlink:href="#md2e1ca0261" y="198.781908"/>
     <use style="fill:#ff0000;stroke:#ffffff;stroke-width:0.48;" x="81.779508" xlink:href="#md2e1ca0261" y="150.323086"/>
     <use style="fill:#ff0000;stroke:#ffffff;stroke-width:0.48;" x="81.779508" xlink:href="#md2e1ca0261" y="195.836897"/>
     <use style="fill:#ff0000;stroke:#ffffff;stroke-width:0.48;" x="293.510734" xlink:href="#md2e1ca0261" y="160.76449"/>
     <use style="fill:#ff0000;stroke:#ffffff;stroke-width:0.48;" x="81.779508" xlink:href="#md2e1ca0261" y="154.874467"/>
     <use style="fill:#ff0000;stroke:#ffffff;stroke-width:0.48;" x="81.779508" xlink:href="#md2e1ca0261" y="154.874467"/>
     <use style="fill:#ff0000;stroke:#ffffff;stroke-width:0.48;" x="200.878323" xlink:href="#md2e1ca0261" y="186.198678"/>
     <use style="fill:#ff0000;stroke:#ffffff;stroke-width:0.48;" x="81.779508" xlink:href="#md2e1ca0261" y="111.502483"/>
     <use style="fill:#ff0000;stroke:#ffffff;stroke-width:0.48;" x="81.779508" xlink:href="#md2e1ca0261" y="154.785225"/>
     <use style="fill:#ff0000;stroke:#ffffff;stroke-width:0.48;" x="81.779508" xlink:href="#md2e1ca0261" y="124.888898"/>
     <use style="fill:#ff0000;stroke:#ffffff;stroke-width:0.48;" x="81.779508" xlink:href="#md2e1ca0261" y="124.888898"/>
     <use style="fill:#ff0000;stroke:#ffffff;stroke-width:0.48;" x="81.779508" xlink:href="#md2e1ca0261" y="170.848923"/>
     <use style="fill:#ff0000;stroke:#ffffff;stroke-width:0.48;" x="227.344726" xlink:href="#md2e1ca0261" y="139.167741"/>
     <use style="fill:#ff0000;stroke:#ffffff;stroke-width:0.48;" x="81.779508" xlink:href="#md2e1ca0261" y="107.486559"/>
     <use style="fill:#ff0000;stroke:#ffffff;stroke-width:0.48;" x="81.779508" xlink:href="#md2e1ca0261" y="143.183665"/>
     <use style="fill:#ff0000;stroke:#ffffff;stroke-width:0.48;" x="306.743935" xlink:href="#md2e1ca0261" y="164.512686"/>
     <use style="fill:#ff0000;stroke:#ffffff;stroke-width:0.48;" x="306.743935" xlink:href="#md2e1ca0261" y="164.512686"/>
     <use style="fill:#ff0000;stroke:#ffffff;stroke-width:0.48;" x="68.546307" xlink:href="#md2e1ca0261" y="123.728742"/>
     <use style="fill:#ff0000;stroke:#ffffff;stroke-width:0.48;" x="333.210338" xlink:href="#md2e1ca0261" y="178.523801"/>
     <use style="fill:#ff0000;stroke:#ffffff;stroke-width:0.48;" x="81.779508" xlink:href="#md2e1ca0261" y="125.424355"/>
     <use style="fill:#ff0000;stroke:#ffffff;stroke-width:0.48;" x="187.645121" xlink:href="#md2e1ca0261" y="170.402709"/>
     <use style="fill:#ff0000;stroke:#ffffff;stroke-width:0.48;" x="346.44354" xlink:href="#md2e1ca0261" y="17.083636"/>
     <use style="fill:#ff0000;stroke:#ffffff;stroke-width:0.48;" x="359.676742" xlink:href="#md2e1ca0261" y="68.308984"/>
     <use style="fill:#ff0000;stroke:#ffffff;stroke-width:0.48;" x="372.909943" xlink:href="#md2e1ca0261" y="204.493446"/>
     <use style="fill:#ff0000;stroke:#ffffff;stroke-width:0.48;" x="68.546307" xlink:href="#md2e1ca0261" y="99.811681"/>
    </g>
   </g>
   <g id="matplotlib.axis_1">
    <g id="xtick_1">
     <g id="line2d_1">
      <defs>
       <path d="M 0 0 
L 0 3.5 
" id="m227e539b84" style="stroke:#000000;stroke-width:0.8;"/>
      </defs>
      <g>
       <use style="stroke:#000000;stroke-width:0.8;" x="68.546307" xlink:href="#m227e539b84" y="224.64"/>
      </g>
     </g>
    </g>
    <g id="xtick_2">
     <g id="line2d_2">
      <g>
       <use style="stroke:#000000;stroke-width:0.8;" x="81.779508" xlink:href="#m227e539b84" y="224.64"/>
      </g>
     </g>
    </g>
    <g id="xtick_3">
     <g id="line2d_3">
      <g>
       <use style="stroke:#000000;stroke-width:0.8;" x="95.01271" xlink:href="#m227e539b84" y="224.64"/>
      </g>
     </g>
    </g>
    <g id="xtick_4">
     <g id="line2d_4">
      <g>
       <use style="stroke:#000000;stroke-width:0.8;" x="108.245912" xlink:href="#m227e539b84" y="224.64"/>
      </g>
     </g>
    </g>
    <g id="xtick_5">
     <g id="line2d_5">
      <g>
       <use style="stroke:#000000;stroke-width:0.8;" x="121.479113" xlink:href="#m227e539b84" y="224.64"/>
      </g>
     </g>
    </g>
    <g id="xtick_6">
     <g id="line2d_6">
      <g>
       <use style="stroke:#000000;stroke-width:0.8;" x="134.712315" xlink:href="#m227e539b84" y="224.64"/>
      </g>
     </g>
    </g>
    <g id="xtick_7">
     <g id="line2d_7">
      <g>
       <use style="stroke:#000000;stroke-width:0.8;" x="147.945516" xlink:href="#m227e539b84" y="224.64"/>
      </g>
     </g>
    </g>
    <g id="xtick_8">
     <g id="line2d_8">
      <g>
       <use style="stroke:#000000;stroke-width:0.8;" x="161.178718" xlink:href="#m227e539b84" y="224.64"/>
      </g>
     </g>
    </g>
    <g id="xtick_9">
     <g id="line2d_9">
      <g>
       <use style="stroke:#000000;stroke-width:0.8;" x="174.411919" xlink:href="#m227e539b84" y="224.64"/>
      </g>
     </g>
    </g>
    <g id="xtick_10">
     <g id="line2d_10">
      <g>
       <use style="stroke:#000000;stroke-width:0.8;" x="187.645121" xlink:href="#m227e539b84" y="224.64"/>
      </g>
     </g>
    </g>
    <g id="xtick_11">
     <g id="line2d_11">
      <g>
       <use style="stroke:#000000;stroke-width:0.8;" x="200.878323" xlink:href="#m227e539b84" y="224.64"/>
      </g>
     </g>
    </g>
    <g id="xtick_12">
     <g id="line2d_12">
      <g>
       <use style="stroke:#000000;stroke-width:0.8;" x="214.111524" xlink:href="#m227e539b84" y="224.64"/>
      </g>
     </g>
    </g>
    <g id="xtick_13">
     <g id="line2d_13">
      <g>
       <use style="stroke:#000000;stroke-width:0.8;" x="227.344726" xlink:href="#m227e539b84" y="224.64"/>
      </g>
     </g>
    </g>
    <g id="xtick_14">
     <g id="line2d_14">
      <g>
       <use style="stroke:#000000;stroke-width:0.8;" x="240.577927" xlink:href="#m227e539b84" y="224.64"/>
      </g>
     </g>
    </g>
    <g id="xtick_15">
     <g id="line2d_15">
      <g>
       <use style="stroke:#000000;stroke-width:0.8;" x="253.811129" xlink:href="#m227e539b84" y="224.64"/>
      </g>
     </g>
    </g>
    <g id="xtick_16">
     <g id="line2d_16">
      <g>
       <use style="stroke:#000000;stroke-width:0.8;" x="267.044331" xlink:href="#m227e539b84" y="224.64"/>
      </g>
     </g>
    </g>
    <g id="xtick_17">
     <g id="line2d_17">
      <g>
       <use style="stroke:#000000;stroke-width:0.8;" x="280.277532" xlink:href="#m227e539b84" y="224.64"/>
      </g>
     </g>
    </g>
    <g id="xtick_18">
     <g id="line2d_18">
      <g>
       <use style="stroke:#000000;stroke-width:0.8;" x="293.510734" xlink:href="#m227e539b84" y="224.64"/>
      </g>
     </g>
    </g>
    <g id="xtick_19">
     <g id="line2d_19">
      <g>
       <use style="stroke:#000000;stroke-width:0.8;" x="306.743935" xlink:href="#m227e539b84" y="224.64"/>
      </g>
     </g>
    </g>
    <g id="xtick_20">
     <g id="line2d_20">
      <g>
       <use style="stroke:#000000;stroke-width:0.8;" x="319.977137" xlink:href="#m227e539b84" y="224.64"/>
      </g>
     </g>
    </g>
    <g id="xtick_21">
     <g id="line2d_21">
      <g>
       <use style="stroke:#000000;stroke-width:0.8;" x="333.210338" xlink:href="#m227e539b84" y="224.64"/>
      </g>
     </g>
    </g>
    <g id="xtick_22">
     <g id="line2d_22">
      <g>
       <use style="stroke:#000000;stroke-width:0.8;" x="346.44354" xlink:href="#m227e539b84" y="224.64"/>
      </g>
     </g>
    </g>
    <g id="xtick_23">
     <g id="line2d_23">
      <g>
       <use style="stroke:#000000;stroke-width:0.8;" x="359.676742" xlink:href="#m227e539b84" y="224.64"/>
      </g>
     </g>
    </g>
    <g id="xtick_24">
     <g id="line2d_24">
      <g>
       <use style="stroke:#000000;stroke-width:0.8;" x="372.909943" xlink:href="#m227e539b84" y="224.64"/>
      </g>
     </g>
    </g>
    <g id="text_1">
     <!-- COMMUNITY -->
     <g transform="translate(189.689844 243.238438)scale(0.1 -0.1)">
      <defs>
       <path d="M 64.40625 67.28125 
L 64.40625 56.890625 
Q 59.421875 61.53125 53.78125 63.8125 
Q 48.140625 66.109375 41.796875 66.109375 
Q 29.296875 66.109375 22.65625 58.46875 
Q 16.015625 50.828125 16.015625 36.375 
Q 16.015625 21.96875 22.65625 14.328125 
Q 29.296875 6.6875 41.796875 6.6875 
Q 48.140625 6.6875 53.78125 8.984375 
Q 59.421875 11.28125 64.40625 15.921875 
L 64.40625 5.609375 
Q 59.234375 2.09375 53.4375 0.328125 
Q 47.65625 -1.421875 41.21875 -1.421875 
Q 24.65625 -1.421875 15.125 8.703125 
Q 5.609375 18.84375 5.609375 36.375 
Q 5.609375 53.953125 15.125 64.078125 
Q 24.65625 74.21875 41.21875 74.21875 
Q 47.75 74.21875 53.53125 72.484375 
Q 59.328125 70.75 64.40625 67.28125 
z
" id="DejaVuSans-67"/>
       <path d="M 39.40625 66.21875 
Q 28.65625 66.21875 22.328125 58.203125 
Q 16.015625 50.203125 16.015625 36.375 
Q 16.015625 22.609375 22.328125 14.59375 
Q 28.65625 6.59375 39.40625 6.59375 
Q 50.140625 6.59375 56.421875 14.59375 
Q 62.703125 22.609375 62.703125 36.375 
Q 62.703125 50.203125 56.421875 58.203125 
Q 50.140625 66.21875 39.40625 66.21875 
z
M 39.40625 74.21875 
Q 54.734375 74.21875 63.90625 63.9375 
Q 73.09375 53.65625 73.09375 36.375 
Q 73.09375 19.140625 63.90625 8.859375 
Q 54.734375 -1.421875 39.40625 -1.421875 
Q 24.03125 -1.421875 14.8125 8.828125 
Q 5.609375 19.09375 5.609375 36.375 
Q 5.609375 53.65625 14.8125 63.9375 
Q 24.03125 74.21875 39.40625 74.21875 
z
" id="DejaVuSans-79"/>
       <path d="M 9.8125 72.90625 
L 24.515625 72.90625 
L 43.109375 23.296875 
L 61.8125 72.90625 
L 76.515625 72.90625 
L 76.515625 0 
L 66.890625 0 
L 66.890625 64.015625 
L 48.09375 14.015625 
L 38.1875 14.015625 
L 19.390625 64.015625 
L 19.390625 0 
L 9.8125 0 
z
" id="DejaVuSans-77"/>
       <path d="M 8.6875 72.90625 
L 18.609375 72.90625 
L 18.609375 28.609375 
Q 18.609375 16.890625 22.84375 11.734375 
Q 27.09375 6.59375 36.625 6.59375 
Q 46.09375 6.59375 50.34375 11.734375 
Q 54.59375 16.890625 54.59375 28.609375 
L 54.59375 72.90625 
L 64.5 72.90625 
L 64.5 27.390625 
Q 64.5 13.140625 57.4375 5.859375 
Q 50.390625 -1.421875 36.625 -1.421875 
Q 22.796875 -1.421875 15.734375 5.859375 
Q 8.6875 13.140625 8.6875 27.390625 
z
" id="DejaVuSans-85"/>
       <path d="M 9.8125 72.90625 
L 23.09375 72.90625 
L 55.421875 11.921875 
L 55.421875 72.90625 
L 64.984375 72.90625 
L 64.984375 0 
L 51.703125 0 
L 19.390625 60.984375 
L 19.390625 0 
L 9.8125 0 
z
" id="DejaVuSans-78"/>
       <path d="M 9.8125 72.90625 
L 19.671875 72.90625 
L 19.671875 0 
L 9.8125 0 
z
" id="DejaVuSans-73"/>
       <path d="M -0.296875 72.90625 
L 61.375 72.90625 
L 61.375 64.59375 
L 35.5 64.59375 
L 35.5 0 
L 25.59375 0 
L 25.59375 64.59375 
L -0.296875 64.59375 
z
" id="DejaVuSans-84"/>
       <path d="M -0.203125 72.90625 
L 10.40625 72.90625 
L 30.609375 42.921875 
L 50.6875 72.90625 
L 61.28125 72.90625 
L 35.5 34.71875 
L 35.5 0 
L 25.59375 0 
L 25.59375 34.71875 
z
" id="DejaVuSans-89"/>
      </defs>
      <use xlink:href="#DejaVuSans-67"/>
      <use x="69.824219" xlink:href="#DejaVuSans-79"/>
      <use x="148.535156" xlink:href="#DejaVuSans-77"/>
      <use x="234.814453" xlink:href="#DejaVuSans-77"/>
      <use x="321.09375" xlink:href="#DejaVuSans-85"/>
      <use x="394.287109" xlink:href="#DejaVuSans-78"/>
      <use x="469.091797" xlink:href="#DejaVuSans-73"/>
      <use x="498.583984" xlink:href="#DejaVuSans-84"/>
      <use x="559.667969" xlink:href="#DejaVuSans-89"/>
     </g>
    </g>
   </g>
   <g id="matplotlib.axis_2">
    <g id="ytick_1">
     <g id="line2d_25">
      <defs>
       <path d="M 0 0 
L -3.5 0 
" id="mf9af395071" style="stroke:#000000;stroke-width:0.8;"/>
      </defs>
      <g>
       <use style="stroke:#000000;stroke-width:0.8;" x="53.328125" xlink:href="#mf9af395071" y="182.807453"/>
      </g>
     </g>
     <g id="text_2">
      <!-- 2000 -->
      <g transform="translate(20.878125 186.606672)scale(0.1 -0.1)">
       <defs>
        <path d="M 19.1875 8.296875 
L 53.609375 8.296875 
L 53.609375 0 
L 7.328125 0 
L 7.328125 8.296875 
Q 12.9375 14.109375 22.625 23.890625 
Q 32.328125 33.6875 34.8125 36.53125 
Q 39.546875 41.84375 41.421875 45.53125 
Q 43.3125 49.21875 43.3125 52.78125 
Q 43.3125 58.59375 39.234375 62.25 
Q 35.15625 65.921875 28.609375 65.921875 
Q 23.96875 65.921875 18.8125 64.3125 
Q 13.671875 62.703125 7.8125 59.421875 
L 7.8125 69.390625 
Q 13.765625 71.78125 18.9375 73 
Q 24.125 74.21875 28.421875 74.21875 
Q 39.75 74.21875 46.484375 68.546875 
Q 53.21875 62.890625 53.21875 53.421875 
Q 53.21875 48.921875 51.53125 44.890625 
Q 49.859375 40.875 45.40625 35.40625 
Q 44.1875 33.984375 37.640625 27.21875 
Q 31.109375 20.453125 19.1875 8.296875 
z
" id="DejaVuSans-50"/>
        <path d="M 31.78125 66.40625 
Q 24.171875 66.40625 20.328125 58.90625 
Q 16.5 51.421875 16.5 36.375 
Q 16.5 21.390625 20.328125 13.890625 
Q 24.171875 6.390625 31.78125 6.390625 
Q 39.453125 6.390625 43.28125 13.890625 
Q 47.125 21.390625 47.125 36.375 
Q 47.125 51.421875 43.28125 58.90625 
Q 39.453125 66.40625 31.78125 66.40625 
z
M 31.78125 74.21875 
Q 44.046875 74.21875 50.515625 64.515625 
Q 56.984375 54.828125 56.984375 36.375 
Q 56.984375 17.96875 50.515625 8.265625 
Q 44.046875 -1.421875 31.78125 -1.421875 
Q 19.53125 -1.421875 13.0625 8.265625 
Q 6.59375 17.96875 6.59375 36.375 
Q 6.59375 54.828125 13.0625 64.515625 
Q 19.53125 74.21875 31.78125 74.21875 
z
" id="DejaVuSans-48"/>
       </defs>
       <use xlink:href="#DejaVuSans-50"/>
       <use x="63.623047" xlink:href="#DejaVuSans-48"/>
       <use x="127.246094" xlink:href="#DejaVuSans-48"/>
       <use x="190.869141" xlink:href="#DejaVuSans-48"/>
      </g>
     </g>
    </g>
    <g id="ytick_2">
     <g id="line2d_26">
      <g>
       <use style="stroke:#000000;stroke-width:0.8;" x="53.328125" xlink:href="#mf9af395071" y="138.18607"/>
      </g>
     </g>
     <g id="text_3">
      <!-- 2500 -->
      <g transform="translate(20.878125 141.985289)scale(0.1 -0.1)">
       <defs>
        <path d="M 10.796875 72.90625 
L 49.515625 72.90625 
L 49.515625 64.59375 
L 19.828125 64.59375 
L 19.828125 46.734375 
Q 21.96875 47.46875 24.109375 47.828125 
Q 26.265625 48.1875 28.421875 48.1875 
Q 40.625 48.1875 47.75 41.5 
Q 54.890625 34.8125 54.890625 23.390625 
Q 54.890625 11.625 47.5625 5.09375 
Q 40.234375 -1.421875 26.90625 -1.421875 
Q 22.3125 -1.421875 17.546875 -0.640625 
Q 12.796875 0.140625 7.71875 1.703125 
L 7.71875 11.625 
Q 12.109375 9.234375 16.796875 8.0625 
Q 21.484375 6.890625 26.703125 6.890625 
Q 35.15625 6.890625 40.078125 11.328125 
Q 45.015625 15.765625 45.015625 23.390625 
Q 45.015625 31 40.078125 35.4375 
Q 35.15625 39.890625 26.703125 39.890625 
Q 22.75 39.890625 18.8125 39.015625 
Q 14.890625 38.140625 10.796875 36.28125 
z
" id="DejaVuSans-53"/>
       </defs>
       <use xlink:href="#DejaVuSans-50"/>
       <use x="63.623047" xlink:href="#DejaVuSans-53"/>
       <use x="127.246094" xlink:href="#DejaVuSans-48"/>
       <use x="190.869141" xlink:href="#DejaVuSans-48"/>
      </g>
     </g>
    </g>
    <g id="ytick_3">
     <g id="line2d_27">
      <g>
       <use style="stroke:#000000;stroke-width:0.8;" x="53.328125" xlink:href="#mf9af395071" y="93.564687"/>
      </g>
     </g>
     <g id="text_4">
      <!-- 3000 -->
      <g transform="translate(20.878125 97.363906)scale(0.1 -0.1)">
       <defs>
        <path d="M 40.578125 39.3125 
Q 47.65625 37.796875 51.625 33 
Q 55.609375 28.21875 55.609375 21.1875 
Q 55.609375 10.40625 48.1875 4.484375 
Q 40.765625 -1.421875 27.09375 -1.421875 
Q 22.515625 -1.421875 17.65625 -0.515625 
Q 12.796875 0.390625 7.625 2.203125 
L 7.625 11.71875 
Q 11.71875 9.328125 16.59375 8.109375 
Q 21.484375 6.890625 26.8125 6.890625 
Q 36.078125 6.890625 40.9375 10.546875 
Q 45.796875 14.203125 45.796875 21.1875 
Q 45.796875 27.640625 41.28125 31.265625 
Q 36.765625 34.90625 28.71875 34.90625 
L 20.21875 34.90625 
L 20.21875 43.015625 
L 29.109375 43.015625 
Q 36.375 43.015625 40.234375 45.921875 
Q 44.09375 48.828125 44.09375 54.296875 
Q 44.09375 59.90625 40.109375 62.90625 
Q 36.140625 65.921875 28.71875 65.921875 
Q 24.65625 65.921875 20.015625 65.03125 
Q 15.375 64.15625 9.8125 62.3125 
L 9.8125 71.09375 
Q 15.4375 72.65625 20.34375 73.4375 
Q 25.25 74.21875 29.59375 74.21875 
Q 40.828125 74.21875 47.359375 69.109375 
Q 53.90625 64.015625 53.90625 55.328125 
Q 53.90625 49.265625 50.4375 45.09375 
Q 46.96875 40.921875 40.578125 39.3125 
z
" id="DejaVuSans-51"/>
       </defs>
       <use xlink:href="#DejaVuSans-51"/>
       <use x="63.623047" xlink:href="#DejaVuSans-48"/>
       <use x="127.246094" xlink:href="#DejaVuSans-48"/>
       <use x="190.869141" xlink:href="#DejaVuSans-48"/>
      </g>
     </g>
    </g>
    <g id="ytick_4">
     <g id="line2d_28">
      <g>
       <use style="stroke:#000000;stroke-width:0.8;" x="53.328125" xlink:href="#mf9af395071" y="48.943304"/>
      </g>
     </g>
     <g id="text_5">
      <!-- 3500 -->
      <g transform="translate(20.878125 52.742523)scale(0.1 -0.1)">
       <use xlink:href="#DejaVuSans-51"/>
       <use x="63.623047" xlink:href="#DejaVuSans-53"/>
       <use x="127.246094" xlink:href="#DejaVuSans-48"/>
       <use x="190.869141" xlink:href="#DejaVuSans-48"/>
      </g>
     </g>
    </g>
    <g id="text_6">
     <!-- rent -->
     <g transform="translate(14.798438 126.068437)rotate(-90)scale(0.1 -0.1)">
      <defs>
       <path d="M 41.109375 46.296875 
Q 39.59375 47.171875 37.8125 47.578125 
Q 36.03125 48 33.890625 48 
Q 26.265625 48 22.1875 43.046875 
Q 18.109375 38.09375 18.109375 28.8125 
L 18.109375 0 
L 9.078125 0 
L 9.078125 54.6875 
L 18.109375 54.6875 
L 18.109375 46.1875 
Q 20.953125 51.171875 25.484375 53.578125 
Q 30.03125 56 36.53125 56 
Q 37.453125 56 38.578125 55.875 
Q 39.703125 55.765625 41.0625 55.515625 
z
" id="DejaVuSans-114"/>
       <path d="M 56.203125 29.59375 
L 56.203125 25.203125 
L 14.890625 25.203125 
Q 15.484375 15.921875 20.484375 11.0625 
Q 25.484375 6.203125 34.421875 6.203125 
Q 39.59375 6.203125 44.453125 7.46875 
Q 49.3125 8.734375 54.109375 11.28125 
L 54.109375 2.78125 
Q 49.265625 0.734375 44.1875 -0.34375 
Q 39.109375 -1.421875 33.890625 -1.421875 
Q 20.796875 -1.421875 13.15625 6.1875 
Q 5.515625 13.8125 5.515625 26.8125 
Q 5.515625 40.234375 12.765625 48.109375 
Q 20.015625 56 32.328125 56 
Q 43.359375 56 49.78125 48.890625 
Q 56.203125 41.796875 56.203125 29.59375 
z
M 47.21875 32.234375 
Q 47.125 39.59375 43.09375 43.984375 
Q 39.0625 48.390625 32.421875 48.390625 
Q 24.90625 48.390625 20.390625 44.140625 
Q 15.875 39.890625 15.1875 32.171875 
z
" id="DejaVuSans-101"/>
       <path d="M 54.890625 33.015625 
L 54.890625 0 
L 45.90625 0 
L 45.90625 32.71875 
Q 45.90625 40.484375 42.875 44.328125 
Q 39.84375 48.1875 33.796875 48.1875 
Q 26.515625 48.1875 22.3125 43.546875 
Q 18.109375 38.921875 18.109375 30.90625 
L 18.109375 0 
L 9.078125 0 
L 9.078125 54.6875 
L 18.109375 54.6875 
L 18.109375 46.1875 
Q 21.34375 51.125 25.703125 53.5625 
Q 30.078125 56 35.796875 56 
Q 45.21875 56 50.046875 50.171875 
Q 54.890625 44.34375 54.890625 33.015625 
z
" id="DejaVuSans-110"/>
       <path d="M 18.3125 70.21875 
L 18.3125 54.6875 
L 36.8125 54.6875 
L 36.8125 47.703125 
L 18.3125 47.703125 
L 18.3125 18.015625 
Q 18.3125 11.328125 20.140625 9.421875 
Q 21.96875 7.515625 27.59375 7.515625 
L 36.8125 7.515625 
L 36.8125 0 
L 27.59375 0 
Q 17.1875 0 13.234375 3.875 
Q 9.28125 7.765625 9.28125 18.015625 
L 9.28125 47.703125 
L 2.6875 47.703125 
L 2.6875 54.6875 
L 9.28125 54.6875 
L 9.28125 70.21875 
z
" id="DejaVuSans-116"/>
      </defs>
      <use xlink:href="#DejaVuSans-114"/>
      <use x="38.863281" xlink:href="#DejaVuSans-101"/>
      <use x="100.386719" xlink:href="#DejaVuSans-110"/>
      <use x="163.765625" xlink:href="#DejaVuSans-116"/>
     </g>
    </g>
   </g>
   <g id="patch_3">
    <path d="M 53.328125 224.64 
L 53.328125 7.2 
" style="fill:none;stroke:#000000;stroke-linecap:square;stroke-linejoin:miter;stroke-width:0.8;"/>
   </g>
   <g id="patch_4">
    <path d="M 388.128125 224.64 
L 388.128125 7.2 
" style="fill:none;stroke:#000000;stroke-linecap:square;stroke-linejoin:miter;stroke-width:0.8;"/>
   </g>
   <g id="patch_5">
    <path d="M 53.328125 224.64 
L 388.128125 224.64 
" style="fill:none;stroke:#000000;stroke-linecap:square;stroke-linejoin:miter;stroke-width:0.8;"/>
   </g>
   <g id="patch_6">
    <path d="M 53.328125 7.2 
L 388.128125 7.2 
" style="fill:none;stroke:#000000;stroke-linecap:square;stroke-linejoin:miter;stroke-width:0.8;"/>
   </g>
  </g>
 </g>
 <defs>
  <clipPath id="p22df393b80">
   <rect height="217.44" width="334.8" x="53.328125" y="7.2"/>
  </clipPath>
 </defs>
</svg>
